<mxfile host="Electron" modified="2023-09-01T11:55:34.006Z" agent="Mozilla/5.0 (X11; Linux x86_64) AppleWebKit/537.36 (KHTML, like Gecko) draw.io/21.6.8 Chrome/114.0.5735.289 Electron/25.5.0 Safari/537.36" etag="-Gn64MnwKMeduR5LIPDG" version="21.6.8" type="device">
  <diagram name="Page-1" id="iY0SH_jbsJScwaNwZ1_d">
    <mxGraphModel dx="989" dy="581" grid="0" gridSize="10" guides="1" tooltips="1" connect="1" arrows="1" fold="1" page="1" pageScale="1" pageWidth="850" pageHeight="1100" math="0" shadow="0">
      <root>
        <mxCell id="0" />
        <mxCell id="1" parent="0" />
        <mxCell id="m04cw624Dt1Q1OAdnuAl-7" style="edgeStyle=orthogonalEdgeStyle;rounded=0;orthogonalLoop=1;jettySize=auto;html=1;exitX=0.5;exitY=0;exitDx=0;exitDy=0;" edge="1" parent="1" source="m04cw624Dt1Q1OAdnuAl-1" target="m04cw624Dt1Q1OAdnuAl-3">
          <mxGeometry relative="1" as="geometry" />
        </mxCell>
        <mxCell id="m04cw624Dt1Q1OAdnuAl-8" value="&lt;font style=&quot;font-size: 14px;&quot;&gt;hardware support&lt;/font&gt;" style="edgeLabel;html=1;align=center;verticalAlign=middle;resizable=0;points=[];" vertex="1" connectable="0" parent="m04cw624Dt1Q1OAdnuAl-7">
          <mxGeometry x="0.025" relative="1" as="geometry">
            <mxPoint as="offset" />
          </mxGeometry>
        </mxCell>
        <mxCell id="m04cw624Dt1Q1OAdnuAl-1" value="X86 PC" style="rounded=1;whiteSpace=wrap;html=1;fillColor=#dae8fc;strokeColor=#6c8ebf;" vertex="1" parent="1">
          <mxGeometry x="40" y="480" width="160" height="120" as="geometry" />
        </mxCell>
        <mxCell id="m04cw624Dt1Q1OAdnuAl-4" style="edgeStyle=orthogonalEdgeStyle;rounded=0;orthogonalLoop=1;jettySize=auto;html=1;exitX=0;exitY=0.5;exitDx=0;exitDy=0;" edge="1" parent="1" source="m04cw624Dt1Q1OAdnuAl-2" target="m04cw624Dt1Q1OAdnuAl-3">
          <mxGeometry relative="1" as="geometry" />
        </mxCell>
        <mxCell id="m04cw624Dt1Q1OAdnuAl-5" value="&lt;font style=&quot;font-size: 14px;&quot;&gt;g++ Compiler&lt;/font&gt;" style="edgeLabel;html=1;align=center;verticalAlign=middle;resizable=0;points=[];" vertex="1" connectable="0" parent="m04cw624Dt1Q1OAdnuAl-4">
          <mxGeometry x="0.05" relative="1" as="geometry">
            <mxPoint as="offset" />
          </mxGeometry>
        </mxCell>
        <mxCell id="m04cw624Dt1Q1OAdnuAl-2" value="C++ files" style="rounded=1;whiteSpace=wrap;html=1;fillColor=#f8cecc;strokeColor=#b85450;" vertex="1" parent="1">
          <mxGeometry x="350" y="280" width="160" height="120" as="geometry" />
        </mxCell>
        <mxCell id="m04cw624Dt1Q1OAdnuAl-13" style="edgeStyle=orthogonalEdgeStyle;rounded=0;orthogonalLoop=1;jettySize=auto;html=1;exitX=0.5;exitY=0;exitDx=0;exitDy=0;entryX=0.5;entryY=1;entryDx=0;entryDy=0;" edge="1" parent="1" source="m04cw624Dt1Q1OAdnuAl-3" target="m04cw624Dt1Q1OAdnuAl-10">
          <mxGeometry relative="1" as="geometry" />
        </mxCell>
        <mxCell id="m04cw624Dt1Q1OAdnuAl-14" value="&lt;font style=&quot;font-size: 14px;&quot;&gt;&lt;font style=&quot;font-size: 14px;&quot; color=&quot;#ff3333&quot;&gt;simulated&lt;/font&gt; hardware support&lt;/font&gt;" style="edgeLabel;html=1;align=center;verticalAlign=middle;resizable=0;points=[];" vertex="1" connectable="0" parent="m04cw624Dt1Q1OAdnuAl-13">
          <mxGeometry y="-2" relative="1" as="geometry">
            <mxPoint as="offset" />
          </mxGeometry>
        </mxCell>
        <mxCell id="m04cw624Dt1Q1OAdnuAl-3" value="Emulator" style="rounded=1;whiteSpace=wrap;html=1;fillColor=#f8cecc;strokeColor=#b85450;" vertex="1" parent="1">
          <mxGeometry x="40" y="280" width="160" height="120" as="geometry" />
        </mxCell>
        <mxCell id="m04cw624Dt1Q1OAdnuAl-11" style="edgeStyle=orthogonalEdgeStyle;rounded=0;orthogonalLoop=1;jettySize=auto;html=1;exitX=0;exitY=0.5;exitDx=0;exitDy=0;" edge="1" parent="1" source="m04cw624Dt1Q1OAdnuAl-9" target="m04cw624Dt1Q1OAdnuAl-10">
          <mxGeometry relative="1" as="geometry" />
        </mxCell>
        <mxCell id="m04cw624Dt1Q1OAdnuAl-12" value="&lt;font style=&quot;font-size: 14px;&quot;&gt;riscv-cross compiler&lt;/font&gt;" style="edgeLabel;html=1;align=center;verticalAlign=middle;resizable=0;points=[];" vertex="1" connectable="0" parent="m04cw624Dt1Q1OAdnuAl-11">
          <mxGeometry x="0.1833" y="-1" relative="1" as="geometry">
            <mxPoint x="14" as="offset" />
          </mxGeometry>
        </mxCell>
        <mxCell id="m04cw624Dt1Q1OAdnuAl-9" value="Benchmark(C files)&lt;br&gt;&amp;amp;&lt;br style=&quot;border-color: var(--border-color);&quot;&gt;C Envrioment" style="rounded=1;whiteSpace=wrap;html=1;fillColor=#d5e8d4;strokeColor=#82b366;" vertex="1" parent="1">
          <mxGeometry x="350" y="80" width="160" height="120" as="geometry" />
        </mxCell>
        <mxCell id="m04cw624Dt1Q1OAdnuAl-10" value="Benchmark.bin" style="rounded=1;whiteSpace=wrap;html=1;fillColor=#d5e8d4;strokeColor=#82b366;" vertex="1" parent="1">
          <mxGeometry x="40" y="80" width="160" height="120" as="geometry" />
        </mxCell>
        <mxCell id="m04cw624Dt1Q1OAdnuAl-16" style="edgeStyle=orthogonalEdgeStyle;rounded=0;orthogonalLoop=1;jettySize=auto;html=1;exitX=0;exitY=0.5;exitDx=0;exitDy=0;entryX=1;entryY=0.5;entryDx=0;entryDy=0;" edge="1" parent="1" source="m04cw624Dt1Q1OAdnuAl-15" target="m04cw624Dt1Q1OAdnuAl-2">
          <mxGeometry relative="1" as="geometry" />
        </mxCell>
        <mxCell id="m04cw624Dt1Q1OAdnuAl-17" value="&lt;font style=&quot;font-size: 14px;&quot;&gt;Verilator&lt;/font&gt;" style="edgeLabel;html=1;align=center;verticalAlign=middle;resizable=0;points=[];" vertex="1" connectable="0" parent="m04cw624Dt1Q1OAdnuAl-16">
          <mxGeometry x="0.2063" y="-1" relative="1" as="geometry">
            <mxPoint x="1" as="offset" />
          </mxGeometry>
        </mxCell>
        <mxCell id="m04cw624Dt1Q1OAdnuAl-15" value="MCU RTL&lt;br&gt;" style="rounded=1;whiteSpace=wrap;html=1;fillColor=#f8cecc;strokeColor=#b85450;" vertex="1" parent="1">
          <mxGeometry x="610" y="280" width="160" height="120" as="geometry" />
        </mxCell>
        <mxCell id="m04cw624Dt1Q1OAdnuAl-18" value="" style="shape=flexArrow;endArrow=classic;html=1;rounded=0;fillColor=none;" edge="1" parent="1">
          <mxGeometry width="50" height="50" relative="1" as="geometry">
            <mxPoint x="208" y="402" as="sourcePoint" />
            <mxPoint x="378" y="522" as="targetPoint" />
          </mxGeometry>
        </mxCell>
        <mxCell id="m04cw624Dt1Q1OAdnuAl-21" value="打印分数" style="ellipse;whiteSpace=wrap;html=1;dashed=1;" vertex="1" parent="1">
          <mxGeometry x="365" y="510" width="120" height="80" as="geometry" />
        </mxCell>
      </root>
    </mxGraphModel>
  </diagram>
</mxfile>
